<mxfile host="app.diagrams.net" modified="2024-02-18T17:51:58.711Z" agent="Mozilla/5.0 (Windows NT 10.0; Win64; x64; rv:122.0) Gecko/20100101 Firefox/122.0" etag="ZURB6B6vfEo1k_0mTwXc" version="23.1.5" type="device" pages="2">
  <diagram id="wDetFJQ_WTq6vgk5pyAq" name="Schema">
    <mxGraphModel dx="2074" dy="1134" grid="1" gridSize="10" guides="1" tooltips="1" connect="1" arrows="1" fold="1" page="1" pageScale="1" pageWidth="827" pageHeight="1169" math="0" shadow="0">
      <root>
        <mxCell id="0" />
        <mxCell id="1" parent="0" />
        <mxCell id="j72cv7CVTLugQycuNHUF-1" value="PWD_GEN" style="rounded=0;whiteSpace=wrap;html=1;" parent="1" vertex="1">
          <mxGeometry x="240" y="240" width="120" height="160" as="geometry" />
        </mxCell>
        <mxCell id="j72cv7CVTLugQycuNHUF-2" value="" style="endArrow=none;html=1;rounded=0;" parent="1" edge="1">
          <mxGeometry width="50" height="50" relative="1" as="geometry">
            <mxPoint x="200" y="280" as="sourcePoint" />
            <mxPoint x="240" y="280" as="targetPoint" />
          </mxGeometry>
        </mxCell>
        <mxCell id="j72cv7CVTLugQycuNHUF-3" value="clk" style="rounded=0;whiteSpace=wrap;html=1;strokeColor=none;fillColor=none;" parent="1" vertex="1">
          <mxGeometry x="200" y="240" width="40" height="40" as="geometry" />
        </mxCell>
        <mxCell id="j72cv7CVTLugQycuNHUF-4" value="" style="endArrow=none;html=1;rounded=0;" parent="1" edge="1">
          <mxGeometry width="50" height="50" relative="1" as="geometry">
            <mxPoint x="200" y="320" as="sourcePoint" />
            <mxPoint x="240" y="320" as="targetPoint" />
          </mxGeometry>
        </mxCell>
        <mxCell id="j72cv7CVTLugQycuNHUF-5" value="rst" style="rounded=0;whiteSpace=wrap;html=1;strokeColor=none;fillColor=none;" parent="1" vertex="1">
          <mxGeometry x="200" y="280" width="40" height="40" as="geometry" />
        </mxCell>
        <mxCell id="j72cv7CVTLugQycuNHUF-6" value="" style="endArrow=none;html=1;rounded=0;" parent="1" edge="1">
          <mxGeometry width="50" height="50" relative="1" as="geometry">
            <mxPoint x="200" y="360" as="sourcePoint" />
            <mxPoint x="240" y="360" as="targetPoint" />
          </mxGeometry>
        </mxCell>
        <mxCell id="j72cv7CVTLugQycuNHUF-7" value="continue" style="rounded=0;whiteSpace=wrap;html=1;strokeColor=none;fillColor=none;" parent="1" vertex="1">
          <mxGeometry x="170" y="320" width="70" height="40" as="geometry" />
        </mxCell>
        <mxCell id="j72cv7CVTLugQycuNHUF-8" value="BRAM" style="rounded=0;whiteSpace=wrap;html=1;" parent="1" vertex="1">
          <mxGeometry x="480" y="240" width="120" height="160" as="geometry" />
        </mxCell>
        <mxCell id="j72cv7CVTLugQycuNHUF-9" value="" style="shape=flexArrow;endArrow=classic;html=1;rounded=0;entryX=1;entryY=1;entryDx=0;entryDy=0;exitX=0;exitY=1;exitDx=0;exitDy=0;fillColor=#4D4D4D;strokeColor=none;" parent="1" source="j72cv7CVTLugQycuNHUF-10" target="j72cv7CVTLugQycuNHUF-10" edge="1">
          <mxGeometry width="50" height="50" relative="1" as="geometry">
            <mxPoint x="370" y="280" as="sourcePoint" />
            <mxPoint x="470" y="280" as="targetPoint" />
            <Array as="points">
              <mxPoint x="430" y="280" />
            </Array>
          </mxGeometry>
        </mxCell>
        <mxCell id="j72cv7CVTLugQycuNHUF-10" value="PWD_A" style="rounded=0;whiteSpace=wrap;html=1;strokeColor=none;fillColor=none;" parent="1" vertex="1">
          <mxGeometry x="360" y="240" width="120" height="40" as="geometry" />
        </mxCell>
        <mxCell id="j72cv7CVTLugQycuNHUF-11" value="" style="shape=flexArrow;endArrow=classic;html=1;rounded=0;entryX=1;entryY=1;entryDx=0;entryDy=0;exitX=0;exitY=1;exitDx=0;exitDy=0;fillColor=#4D4D4D;strokeColor=none;" parent="1" source="j72cv7CVTLugQycuNHUF-12" target="j72cv7CVTLugQycuNHUF-12" edge="1">
          <mxGeometry width="50" height="50" relative="1" as="geometry">
            <mxPoint x="370" y="359.31" as="sourcePoint" />
            <mxPoint x="470" y="359.31" as="targetPoint" />
            <Array as="points">
              <mxPoint x="430" y="359.31" />
            </Array>
          </mxGeometry>
        </mxCell>
        <mxCell id="j72cv7CVTLugQycuNHUF-12" value="PWD_B" style="rounded=0;whiteSpace=wrap;html=1;strokeColor=none;fillColor=none;" parent="1" vertex="1">
          <mxGeometry x="360" y="319.31" width="120" height="40" as="geometry" />
        </mxCell>
      </root>
    </mxGraphModel>
  </diagram>
  <diagram name="Examples" id="U7iNReg8eR6pTgAjHRaP">
    <mxGraphModel dx="1430" dy="782" grid="1" gridSize="10" guides="1" tooltips="1" connect="1" arrows="1" fold="1" page="1" pageScale="1" pageWidth="827" pageHeight="1169" math="0" shadow="0">
      <root>
        <mxCell id="0" />
        <mxCell id="1" parent="0" />
        <mxCell id="OMo36UtQhBEkjAh3hYFQ-3" value="&lt;b&gt;&lt;i&gt;432bits = 6 bits * 72&lt;/i&gt;&lt;/b&gt;" style="text;html=1;strokeColor=none;fillColor=none;align=center;verticalAlign=middle;whiteSpace=wrap;rounded=0;" parent="1" vertex="1">
          <mxGeometry x="80" y="200" width="240" height="40" as="geometry" />
        </mxCell>
        <mxCell id="OMo36UtQhBEkjAh3hYFQ-4" value="INIT" style="text;html=1;strokeColor=none;fillColor=none;align=center;verticalAlign=middle;whiteSpace=wrap;rounded=0;fontFamily=Helvetica;fontStyle=1" parent="1" vertex="1">
          <mxGeometry y="240" width="80" height="40" as="geometry" />
        </mxCell>
        <mxCell id="OMo36UtQhBEkjAh3hYFQ-5" value="LENGTH" style="text;html=1;strokeColor=none;fillColor=none;align=center;verticalAlign=middle;whiteSpace=wrap;rounded=0;fontFamily=Helvetica;fontStyle=1" parent="1" vertex="1">
          <mxGeometry y="320" width="80" height="40" as="geometry" />
        </mxCell>
        <mxCell id="OMo36UtQhBEkjAh3hYFQ-9" value="&lt;font face=&quot;Lucida Console&quot; size=&quot;1&quot;&gt;&lt;b style=&quot;font-size: 14px;&quot;&gt;1&lt;/b&gt;&lt;/font&gt;" style="rounded=0;whiteSpace=wrap;html=1;" parent="1" vertex="1">
          <mxGeometry x="80" y="320" width="240" height="40" as="geometry" />
        </mxCell>
        <mxCell id="OMo36UtQhBEkjAh3hYFQ-12" value="a∅a∅a∅a∅a∅a∅a∅a∅a∅..." style="rounded=0;whiteSpace=wrap;html=1;" parent="1" vertex="1">
          <mxGeometry x="560" y="240" width="160" height="40" as="geometry" />
        </mxCell>
        <mxCell id="OMo36UtQhBEkjAh3hYFQ-13" value="&lt;b&gt;&lt;i&gt;PWD A&lt;br&gt;&lt;/i&gt;&lt;/b&gt;" style="text;html=1;strokeColor=none;fillColor=none;align=center;verticalAlign=middle;whiteSpace=wrap;rounded=0;" parent="1" vertex="1">
          <mxGeometry x="720" y="240" width="80" height="40" as="geometry" />
        </mxCell>
        <mxCell id="OMo36UtQhBEkjAh3hYFQ-14" value="b∅b∅b∅b∅b∅b∅b∅b∅b∅..." style="rounded=0;whiteSpace=wrap;html=1;" parent="1" vertex="1">
          <mxGeometry x="560" y="320" width="160" height="40" as="geometry" />
        </mxCell>
        <mxCell id="OMo36UtQhBEkjAh3hYFQ-15" value="&lt;b&gt;&lt;i&gt;PWD B&lt;br&gt;&lt;/i&gt;&lt;/b&gt;" style="text;html=1;strokeColor=none;fillColor=none;align=center;verticalAlign=middle;whiteSpace=wrap;rounded=0;" parent="1" vertex="1">
          <mxGeometry x="720" y="320" width="80" height="40" as="geometry" />
        </mxCell>
        <mxCell id="OMo36UtQhBEkjAh3hYFQ-24" value="" style="shape=flexArrow;endArrow=classic;html=1;rounded=0;" parent="1" edge="1">
          <mxGeometry width="50" height="50" relative="1" as="geometry">
            <mxPoint x="360" y="300" as="sourcePoint" />
            <mxPoint x="520" y="300" as="targetPoint" />
            <Array as="points">
              <mxPoint x="440" y="299.66" />
            </Array>
          </mxGeometry>
        </mxCell>
        <mxCell id="GaT7ZNMwc_b_iaKsji7f-1" value="&lt;b&gt;&lt;i&gt;576 bits = 72 bytes&lt;br&gt;&lt;/i&gt;&lt;/b&gt;" style="text;html=1;strokeColor=none;fillColor=none;align=center;verticalAlign=middle;whiteSpace=wrap;rounded=0;" parent="1" vertex="1">
          <mxGeometry x="560" y="200" width="160" height="40" as="geometry" />
        </mxCell>
        <mxCell id="wNgnw3i6wH5dH1nvez8R-2" value="Conversion ascii" style="rounded=0;whiteSpace=wrap;html=1;fillColor=none;strokeColor=none;fontStyle=3" vertex="1" parent="1">
          <mxGeometry x="360" y="250" width="160" height="30" as="geometry" />
        </mxCell>
        <mxCell id="wNgnw3i6wH5dH1nvez8R-3" value="&lt;font style=&quot;font-size: 14px;&quot; color=&quot;#ff3333&quot;&gt;...000000&lt;/font&gt;&lt;font style=&quot;font-size: 14px;&quot; color=&quot;#97d077&quot;&gt;000000&lt;/font&gt;" style="rounded=0;whiteSpace=wrap;html=1;fontSize=14;" vertex="1" parent="1">
          <mxGeometry x="80" y="240" width="240" height="40" as="geometry" />
        </mxCell>
        <mxCell id="wNgnw3i6wH5dH1nvez8R-9" value="Conversion Table" style="shape=table;startSize=30;container=1;collapsible=0;childLayout=tableLayout;strokeColor=default;fontSize=16;" vertex="1" parent="1">
          <mxGeometry x="290" y="50" width="300" height="110" as="geometry" />
        </mxCell>
        <mxCell id="wNgnw3i6wH5dH1nvez8R-10" value="" style="shape=tableRow;horizontal=0;startSize=0;swimlaneHead=0;swimlaneBody=0;strokeColor=inherit;top=0;left=0;bottom=0;right=0;collapsible=0;dropTarget=0;fillColor=none;points=[[0,0.5],[1,0.5]];portConstraint=eastwest;fontSize=16;" vertex="1" parent="wNgnw3i6wH5dH1nvez8R-9">
          <mxGeometry y="30" width="300" height="40" as="geometry" />
        </mxCell>
        <mxCell id="wNgnw3i6wH5dH1nvez8R-11" value="0x00" style="shape=partialRectangle;html=1;whiteSpace=wrap;connectable=0;strokeColor=inherit;overflow=hidden;fillColor=none;top=0;left=0;bottom=0;right=0;pointerEvents=1;fontSize=16;" vertex="1" parent="wNgnw3i6wH5dH1nvez8R-10">
          <mxGeometry width="60" height="40" as="geometry">
            <mxRectangle width="60" height="40" as="alternateBounds" />
          </mxGeometry>
        </mxCell>
        <mxCell id="wNgnw3i6wH5dH1nvez8R-12" value="0x01" style="shape=partialRectangle;html=1;whiteSpace=wrap;connectable=0;strokeColor=inherit;overflow=hidden;fillColor=none;top=0;left=0;bottom=0;right=0;pointerEvents=1;fontSize=16;" vertex="1" parent="wNgnw3i6wH5dH1nvez8R-10">
          <mxGeometry x="60" width="60" height="40" as="geometry">
            <mxRectangle width="60" height="40" as="alternateBounds" />
          </mxGeometry>
        </mxCell>
        <mxCell id="wNgnw3i6wH5dH1nvez8R-28" value="0x02" style="shape=partialRectangle;html=1;whiteSpace=wrap;connectable=0;strokeColor=inherit;overflow=hidden;fillColor=none;top=0;left=0;bottom=0;right=0;pointerEvents=1;fontSize=16;" vertex="1" parent="wNgnw3i6wH5dH1nvez8R-10">
          <mxGeometry x="120" width="60" height="40" as="geometry">
            <mxRectangle width="60" height="40" as="alternateBounds" />
          </mxGeometry>
        </mxCell>
        <mxCell id="wNgnw3i6wH5dH1nvez8R-30" value="0x1b" style="shape=partialRectangle;html=1;whiteSpace=wrap;connectable=0;strokeColor=inherit;overflow=hidden;fillColor=none;top=0;left=0;bottom=0;right=0;pointerEvents=1;fontSize=16;" vertex="1" parent="wNgnw3i6wH5dH1nvez8R-10">
          <mxGeometry x="180" width="60" height="40" as="geometry">
            <mxRectangle width="60" height="40" as="alternateBounds" />
          </mxGeometry>
        </mxCell>
        <mxCell id="wNgnw3i6wH5dH1nvez8R-32" value="0x35" style="shape=partialRectangle;html=1;whiteSpace=wrap;connectable=0;strokeColor=inherit;overflow=hidden;fillColor=none;top=0;left=0;bottom=0;right=0;pointerEvents=1;fontSize=16;" vertex="1" parent="wNgnw3i6wH5dH1nvez8R-10">
          <mxGeometry x="240" width="60" height="40" as="geometry">
            <mxRectangle width="60" height="40" as="alternateBounds" />
          </mxGeometry>
        </mxCell>
        <mxCell id="wNgnw3i6wH5dH1nvez8R-14" value="" style="shape=tableRow;horizontal=0;startSize=0;swimlaneHead=0;swimlaneBody=0;strokeColor=inherit;top=0;left=0;bottom=0;right=0;collapsible=0;dropTarget=0;fillColor=none;points=[[0,0.5],[1,0.5]];portConstraint=eastwest;fontSize=16;" vertex="1" parent="wNgnw3i6wH5dH1nvez8R-9">
          <mxGeometry y="70" width="300" height="40" as="geometry" />
        </mxCell>
        <mxCell id="wNgnw3i6wH5dH1nvez8R-15" value="&lt;div&gt;NULL&lt;/div&gt;&lt;div&gt;&lt;b&gt;&lt;i&gt;∅ &lt;/i&gt;&lt;/b&gt;&lt;/div&gt;" style="shape=partialRectangle;html=1;whiteSpace=wrap;connectable=0;strokeColor=inherit;overflow=hidden;fillColor=none;top=0;left=0;bottom=0;right=0;pointerEvents=1;fontSize=16;" vertex="1" parent="wNgnw3i6wH5dH1nvez8R-14">
          <mxGeometry width="60" height="40" as="geometry">
            <mxRectangle width="60" height="40" as="alternateBounds" />
          </mxGeometry>
        </mxCell>
        <mxCell id="wNgnw3i6wH5dH1nvez8R-16" value="&#39;a&#39;" style="shape=partialRectangle;html=1;whiteSpace=wrap;connectable=0;strokeColor=inherit;overflow=hidden;fillColor=none;top=0;left=0;bottom=0;right=0;pointerEvents=1;fontSize=16;" vertex="1" parent="wNgnw3i6wH5dH1nvez8R-14">
          <mxGeometry x="60" width="60" height="40" as="geometry">
            <mxRectangle width="60" height="40" as="alternateBounds" />
          </mxGeometry>
        </mxCell>
        <mxCell id="wNgnw3i6wH5dH1nvez8R-29" value="&#39;b&#39;" style="shape=partialRectangle;html=1;whiteSpace=wrap;connectable=0;strokeColor=inherit;overflow=hidden;fillColor=none;top=0;left=0;bottom=0;right=0;pointerEvents=1;fontSize=16;" vertex="1" parent="wNgnw3i6wH5dH1nvez8R-14">
          <mxGeometry x="120" width="60" height="40" as="geometry">
            <mxRectangle width="60" height="40" as="alternateBounds" />
          </mxGeometry>
        </mxCell>
        <mxCell id="wNgnw3i6wH5dH1nvez8R-31" value="&#39;A&#39;" style="shape=partialRectangle;html=1;whiteSpace=wrap;connectable=0;strokeColor=inherit;overflow=hidden;fillColor=none;top=0;left=0;bottom=0;right=0;pointerEvents=1;fontSize=16;" vertex="1" parent="wNgnw3i6wH5dH1nvez8R-14">
          <mxGeometry x="180" width="60" height="40" as="geometry">
            <mxRectangle width="60" height="40" as="alternateBounds" />
          </mxGeometry>
        </mxCell>
        <mxCell id="wNgnw3i6wH5dH1nvez8R-33" value="&#39;0&#39;" style="shape=partialRectangle;html=1;whiteSpace=wrap;connectable=0;strokeColor=inherit;overflow=hidden;fillColor=none;top=0;left=0;bottom=0;right=0;pointerEvents=1;fontSize=16;" vertex="1" parent="wNgnw3i6wH5dH1nvez8R-14">
          <mxGeometry x="240" width="60" height="40" as="geometry">
            <mxRectangle width="60" height="40" as="alternateBounds" />
          </mxGeometry>
        </mxCell>
      </root>
    </mxGraphModel>
  </diagram>
</mxfile>
